<?xml version="1.0" encoding="utf-8" ?><svg xmlns="http://www.w3.org/2000/svg" xmlns:xlink="http://www.w3.org/1999/xlink" width="1024" height="1024" viewBox="0 0 1024 1024"><path fill="#FEFEFE" d="M694.241 30.5676C704.539 29.648 716.969 36.5305 721.955 45.4797C730.97 61.6602 737.382 78.9413 744.687 95.9371L779.328 176.336L899.494 456.513C922.342 509.332 944.913 562.27 967.204 615.326L985.347 657.532C990.036 668.255 995.488 679.238 998.549 690.475C992.499 694.828 981.969 699.483 975.035 702.716L946.943 715.815L818.274 774.546C704.695 826.884 590.809 878.556 476.624 929.557C444 944.387 411.256 958.954 378.397 973.255C367.738 977.972 339.906 991.751 330.044 993.359C317.827 995.439 304.796 990.008 298.87 978.831C295.656 972.768 293.204 966.284 290.581 959.94L277.891 929.518L231.924 821.871L66.1591 431.672L39.2465 368.335C36.3764 361.542 23.9688 334.747 25.1884 329.868C29.035 325.348 123.339 284.681 136.516 278.803L539.77 98.3246C570.317 84.679 600.789 70.866 631.184 56.8864C647.724 49.3134 677.63 34.2324 694.241 30.5676ZM35.9414 334.761C38.6133 341.691 41.5955 348.496 44.5787 355.297C54.3227 377.512 63.0645 400.018 73.5419 421.912C91.9734 407.646 121.398 394.154 142.757 385.097C229.339 348.383 317.351 335.188 410.852 347.102C460.469 353.32 508.905 366.785 554.612 387.069C573.849 395.663 591.673 405.612 610.409 414.376C610.893 400.364 612.681 385.681 612.492 371.775C608.989 372.34 604.618 372.917 601.29 373.91C597.627 377.788 595.031 381.179 590.014 383.499C572.184 391.746 551.933 381.626 550.792 360.488C537.404 351.775 523.214 344.085 509.984 335.111C508.881 334.363 508.871 334.08 508.577 332.97C511.391 329.098 523.265 327.996 528.232 327.211L533.741 326.35L663.353 305.373C676.377 303.382 695.862 299.268 708.293 298.296C708.657 301.54 708.945 303.82 709.607 307.012C698.131 319.931 686.808 332.984 675.64 346.169C672.049 350.399 663.56 361.267 660.115 364.663C650.682 366.919 638.731 367.042 629.857 369.136C637.132 389.152 644.824 409.013 652.928 428.708C654.371 432.285 661.041 449.418 662.851 451.692C667.162 457.106 679.298 465.796 685.176 470.911C696.074 480.518 706.691 490.438 717.015 500.658C775.215 558.846 818.94 629.885 844.67 708.057C873.076 701.817 899.262 697.62 928.103 694.048C947.868 691.601 966.587 688.944 986.629 687.763C973.128 652.526 955.689 613.766 940.809 578.674L837.597 337.549L756.845 149.57L732.309 92.2514C726.422 78.4191 720.263 61.3667 711.689 48.968C708.215 43.9443 699.439 40.2349 693.132 41.0752C683.77 43.4112 671.099 49.9569 662.118 54.3046C655.06 57.7303 647.932 61.0103 640.738 64.1427L504.718 125.433L212.923 256.056L91.994 309.661C73.6963 317.824 53.8574 326.193 35.9414 334.761ZM78.2909 433.616L129.177 553.015C138.856 576.155 148.67 599.237 158.62 622.261C167.048 610.377 177.345 601.246 188.537 592.062C229.17 558.876 277.767 536.881 329.516 528.256C336.134 527.131 348.332 525.33 354.911 525.424C357.408 518.296 360.816 508.974 364.55 502.516C366.415 499.168 369.44 492.575 373.17 491.971C383.262 490.334 397.788 498.645 405.627 503.747C418.13 511.885 428.924 519.986 439.759 529.926C452.535 531.161 465.503 534.962 477.649 539.08C517.119 552.329 553.639 573.119 585.181 600.294C590.679 604.973 596.523 609.862 601.424 615.149C603.063 593.558 603.823 572.411 604.752 550.779L609.399 431.533C542.136 387.675 452.892 362.079 373.264 357.542C364.254 357.029 337.048 355.532 328.541 356.715C254.695 361.55 191.45 374.826 124.259 408.046C107.501 416.331 94.0337 425.106 78.2909 433.616ZM160.943 627.323C185.326 686.035 210.061 744.6 235.144 803.016L277.078 900.832C282.603 913.778 288.919 927.267 294.135 940.159C310.858 929.942 329.025 919.873 346.12 910.047C374.055 893.996 402.134 878.197 430.354 862.652C422.783 863.941 417.253 863.937 409.873 861.256C400.365 857.308 395.587 854.049 388.394 846.623C388.561 854.962 388.335 860.692 385.847 868.688C375.403 902.259 333.396 910.557 309.116 886.241C302.186 879.321 297.603 870.4 296.013 860.736C290.142 862.95 287.449 863.655 281.131 864.059C269.808 856.264 251.582 811.91 264.759 802.505L265.414 802.031C256.073 784.28 268.029 785.017 281.122 778.747C275.8 765.895 270.184 752.926 266.06 739.651C274.067 733.948 319.646 713.639 329.327 711.243C333.966 715.274 335.164 718.302 337.549 723.957L347.875 718.963C344.183 709.802 340.012 699.954 337.016 690.619C344.694 684.153 378.061 670.06 388.447 668.046C393.206 674.998 398.446 689.053 401.94 697.361L414.66 692.017C412.235 684.36 412.315 681.33 412.445 673.22L417.574 670.409C413.872 661.581 410.246 652.721 406.696 643.831C404.785 639.054 402.877 634.263 400.944 629.495C399.661 626.33 396.007 627.943 394.848 625.597C391.071 617.945 388.03 609.802 385.212 601.751C373.555 599.401 365.574 595.495 358.827 585.206C348.793 569.903 349.926 551.271 352.021 533.918C352.092 533.336 349.081 533.677 348.761 533.713C291.656 539.194 237.453 561.461 192.985 597.704C186.565 602.897 180.413 608.413 174.554 614.231C170.38 618.326 165.358 623.689 160.943 627.323ZM299.233 954.019C302.753 961.24 304.768 969.241 309.153 975.947C313.694 980.679 317.61 983.138 324.532 983.52C327.575 983.687 332.199 982.776 335.057 981.521C347.839 975.908 360.588 969.848 373.293 964.077L441.189 933.841C527.344 895.739 613.211 856.99 698.784 817.598L852.015 746.44C869.061 738.477 886.05 730.394 902.981 722.191C910.461 718.641 924.259 712.695 931.072 708.626L931.106 708.173L930.309 708.235C889.142 711.849 851.095 719.513 810.889 728.638C792.069 732.909 772.693 736.803 754.076 741.839C688.759 759.808 625.019 783.078 563.488 811.418C501.588 839.972 439.378 874.743 380.198 908.524C353.872 923.552 324.812 938.472 299.233 954.019ZM454.566 570.975L446.927 571.033C439.513 579.752 434.432 586.545 424.364 592.295C425.766 594.449 427.089 596.654 428.33 598.906C436.563 600.027 455.896 605.117 460.556 612.381L465.176 609.002C472.533 611.21 481.853 615.148 478.496 625.06C477.263 628.702 474.355 631.988 471.199 634.17L470.754 634.483C464.067 633.282 461.365 630.399 456.418 629.182C445.449 626.483 435.349 621.532 424.834 618.388C422.763 622.238 421.985 622.844 418.157 625.006C424.275 637.349 429.17 650.426 435.158 662.902C449.216 656.404 461.349 645.421 469.077 665.111C469.428 666 469.757 666.898 470.062 667.804C486.74 662.323 487.074 665.363 494.09 680.294C497.65 676.867 500.531 674.49 504.836 671.972C517.589 676.66 528.25 681.928 537.395 692.377C547.404 703.814 553.639 718.146 548.073 733.241C547.902 733.704 547.724 734.163 547.539 734.621C544.108 741.321 542.188 744.106 536.305 748.772C552.208 763.977 554.862 782.452 547.459 802.692C560.499 796.67 572.943 790.771 586.377 785.663C586.373 783.281 586.265 780.816 586.365 778.446C586.821 767.626 583.572 760.657 595.42 756.286C595.84 713.663 600.544 668.054 600.505 625.914C590.835 615.467 580.147 605.122 568.889 596.356C537.136 571.631 487.466 545.712 447.67 538.816C452.149 544.757 461.318 555.243 460.459 562.634C459.968 566.869 457.665 568.604 454.566 570.975ZM615.013 630.995C642.171 659.973 662.707 690.304 677.373 727.298C680.013 733.957 683.114 741.011 685.23 747.826C701.242 742.683 717.292 737.656 733.378 732.747C740.418 730.617 746.735 728.949 753.883 727.185C751.323 720.533 747.399 711.123 745.432 704.5C746.179 703.495 747.226 702 747.999 701.079C740.775 683.982 733.677 666.833 726.707 649.632C711.002 612.022 695.649 574.266 680.649 536.37L661.595 488.582C649.817 458.662 652.396 457.287 623.957 440.016C621.414 485.339 619.133 530.676 617.115 576.026C616.398 593.668 615.153 613.487 615.013 630.995ZM358.602 775.023C363.834 772.821 370.03 770.383 375.1 768.009C373.759 765.281 368.885 755.016 367.379 753.53L366.801 753.484C361.291 756.147 355.741 758.728 350.153 761.223C351.342 764.051 355.142 774.106 357.279 775.405L358.602 775.023ZM534.926 747.292C533.359 736.797 531.462 724.926 522.628 717.866C520.49 716.157 515.218 713.998 512.396 714.472C460.524 736.132 408.976 758.558 357.769 781.745L308.276 803.482C300.203 807.009 289.706 811.114 282.098 815.024C280.053 831.464 283.068 837.366 290.927 851.969L295.187 848.766C298.432 834.748 302.717 826.133 313.799 816.57C335.518 800.67 360.509 804.033 377.522 824.86C373.568 799.589 390.712 775.751 416.057 771.91C428.45 769.941 441.108 773.14 451.077 780.76C453.96 782.929 457.178 785.974 459.591 788.681C459.453 784.091 459.413 780.751 459.975 776.248C462.742 754.059 483.07 737.759 504.93 737.01C515.813 736.636 525.939 741.698 534.926 747.292ZM403.625 755.249C409.101 752.95 414.507 750.489 419.838 747.87C418.674 745.125 414.466 734.322 412.531 733.045L412.249 733.002C407.822 735.021 400.113 738.261 396.069 740.457C398.205 745.36 400.347 750.524 402.768 755.272L403.625 755.249ZM489.015 700.192C490.115 702.904 494.155 713.744 495.983 714.858L496.604 714.617C501.556 712.772 506.472 710.831 511.349 708.797C509.259 704.487 506.027 697.404 502.933 694.026C498.085 696.614 494.089 698.165 489.015 700.192ZM311.112 796.11C317.042 793.614 322.928 791.011 328.766 788.303C326.876 784.148 324.523 778.55 322.209 774.756C321.923 774.664 321.359 774.445 321.098 774.446C315.81 776.712 308.625 779.618 303.621 782.261C305.554 786.857 307.448 791.675 309.846 796.028L310.671 796.326L311.112 796.11ZM350.213 694.884C351.609 698.353 355.646 709.204 357.955 711.499L358.784 711.752C360.371 710.723 360.74 710.89 361.285 709.47C360.471 706.448 355.575 693.323 353.572 691.931L350.213 694.884ZM297.527 784.97C292.258 787.093 287.023 789.3 281.824 791.59C283.553 795.62 286.235 801.798 288.662 805.367C288.989 805.363 289.316 805.359 289.643 805.355C295.091 803.12 300.026 801.052 305.366 798.548C304.16 795.89 300.054 786.317 298.22 784.995L297.527 784.97ZM289.598 745.164C291.675 750.048 294.338 756.839 296.743 761.38L297.239 761.498L308.269 756.462C306.842 753.134 302.695 742.777 300.565 740.564L300.187 740.465L289.598 745.164ZM477.777 837.424C483.991 834.295 490.703 831.054 496.715 827.649C483.237 823.846 477.333 819.686 467.73 809.138C467.231 808.589 467.459 808.803 466.916 808.375C468.499 823.545 466.096 834.525 457.56 847.403L477.777 837.424ZM401.919 609.785C402.62 612.256 404.004 618.772 406.083 619.998C409.909 619.567 413.749 619.285 417.405 618.089C419.342 613.396 422.19 602.591 416.092 599.844C410.668 602.851 406.739 605.866 401.919 609.785ZM315.86 733.5C312.116 735.223 307.686 737.132 304.104 739.055C305.245 741.769 309.833 753.675 311.697 754.74L311.774 754.736C315.822 752.918 320.007 751.102 323.993 749.171C322.746 746.278 318.264 735.028 316.251 733.594L315.86 733.5ZM520.856 693.153C525.796 699.69 526.8 703.343 527.337 711.457L531.571 714.107C531.355 695.135 522.491 685.094 503.919 681.556L502.593 688.108L507.547 690.018L507.913 690.569C510.404 694.392 516.593 709.585 521.198 708.05C523.797 701.431 511.975 695.758 511.422 689.783C512.366 688.249 511.716 688.825 513.585 688.177C516.842 688.507 518.49 690.804 520.856 693.153ZM465.821 710.351C466.841 712.735 471.298 724.23 473.135 724.515C478.899 722.223 484.63 719.847 490.324 717.386C489.172 714.552 485.029 703.655 482.993 702.475C478.408 704.556 469.956 708.08 465.821 710.351ZM269.909 794.666C272.296 799.251 277.592 804.535 280.832 808.741C282.261 808.832 282.186 808.735 283.44 807.978C284.969 804.731 278.754 795.051 276.478 792.535L275.567 792.463L269.909 794.666ZM541.678 727.885C542.669 720.188 542.782 710.655 536.845 704.717C537.395 713.144 537.558 719.862 540.626 727.872L541.171 728.222L541.678 727.885ZM677.714 750.421C665.898 714.724 651.101 685.127 627.006 655.794C623.921 652.038 617.75 644.407 613.984 641.749C612.746 651.829 612.451 667.687 612.032 678.008L609.922 726.038C609.618 734.695 609.745 749.066 608.5 757.214C616.784 762.458 615.487 764.661 614.961 774.032C628.001 768.958 642.806 762.545 655.911 758.173C663.147 755.499 670.415 752.915 677.714 750.421ZM278.632 749.267C279.708 752.14 284.439 765.606 286.141 767.03L286.533 767.053C288.675 765.933 291.341 764.636 293.379 763.425C292.126 760.186 287.973 748.749 286.004 746.566L285.576 746.449L278.632 749.267ZM328.789 728.451C326.006 729.51 322.64 730.704 319.97 731.916C321.271 734.856 326.084 746.313 327.593 747.656L335.882 744.239C334.802 741.121 331.413 730.398 329.499 728.485L328.789 728.451ZM408.298 626.212C410.107 631.71 422.283 664.609 425.28 666.73C423.917 660.659 412.588 627.855 408.298 626.212ZM344.973 763.503C339.105 766.164 332.435 769.034 326.763 771.935C327.908 774.496 332.136 784.279 333.624 785.919C339.428 783.421 346.307 780.666 351.94 778C350.83 775.427 346.59 764.874 344.973 763.503ZM283.392 852.679C276.339 837.526 271.331 830.032 275.769 813.549C273.963 811.449 271.237 808.031 268.901 806.687C267.044 817.008 270.196 828.36 273.727 837.996C275.153 841.887 278.661 851.872 282.511 853.624L283.303 853.113L283.392 852.679ZM479.445 671.737C480.757 675.839 484.247 688.277 487.559 690.135C487.594 685.287 484.387 673.591 479.445 671.737ZM626.224 400.361C625.953 407.897 625.456 416.438 625.489 423.903C630.083 426.9 635.285 430.133 639.709 433.3C638.479 429.332 628.524 402.709 626.224 400.361ZM425.207 745.433C431.012 742.815 437.899 739.928 443.528 737.159C442.025 733.61 439.114 726.181 437.094 723.254L436.171 722.939L418.067 731.037C419.378 733.953 423.284 743.091 424.706 745.357L425.207 745.433ZM459.509 712.981C453.706 715.562 447.869 718.066 441.999 720.491C443.016 722.954 447.156 733.987 448.768 734.887L449.139 734.784C454.627 732.698 461.93 729.831 467.061 727.003C465.747 723.82 462.466 715.195 460.326 713.101L459.509 712.981ZM342.235 731.003L342.484 731.529C343.979 734.746 348.291 747.293 350.18 748.379L350.627 748.227C393.49 730.738 436.755 710.99 479.601 692.769C478.053 689.501 473.474 677.158 471.556 675.561L471.159 675.483L342.235 731.003ZM379.609 765.93C385.991 763.283 391.57 760.953 397.769 757.883C396.649 755.172 392.45 744.186 390.464 742.995L372.277 751.089C373.38 753.47 378.331 764.414 379.609 765.93ZM380.872 680.562C375.401 682.946 369.186 685.381 363.906 687.978C366.497 693.685 369.143 699.366 371.843 705.021C377.476 702.622 383.071 700.135 388.626 697.56C387.548 695.054 382.048 682.008 380.872 680.562ZM371.412 506.841L368.554 511.59C386.452 535.905 411.645 558.12 441.075 566.684L442.907 565.237C442.92 564.657 443.159 564.121 442.543 563.826C432.497 559.005 422.575 554.305 413.19 548.149C401.355 540.386 390.666 531.032 381.525 520.219C378.267 516.405 374.526 510.064 371.412 506.841ZM459.866 660.577C448.064 664.763 427.827 672.703 417.331 678.453C417.517 681.096 417.538 688.283 419.509 689.777C420.141 689.608 421.043 689.406 421.622 689.171C435.359 683.478 452.079 676.607 465.336 670.187C463.899 666.789 462.599 663.105 459.866 660.577ZM576.207 339.756C565.772 341.225 558.526 350.906 560.058 361.332C561.591 371.757 571.315 378.944 581.732 377.349C592.059 375.767 599.171 366.144 597.652 355.807C596.133 345.47 586.553 338.299 576.207 339.756ZM776.049 722.459C791.108 718.099 805.415 715.209 820.381 711.343L830.577 708.977C824.982 691.053 817.437 673.842 809.322 656.927C781.792 598.695 743.994 545.902 697.739 501.077C693.463 496.982 676.453 480.132 672.242 478.247C690.33 523.734 708.679 569.117 727.289 614.393C734.497 632.37 741.881 650.275 749.441 668.106C752.986 676.299 756.565 684.78 760.609 692.715C761.856 695.162 765.209 696.214 766.978 699.969C770.374 707.177 773.433 714.946 776.049 722.459ZM376.734 498.78C385.095 522.64 411.532 541.187 433.39 552.474C438.324 555.023 447.196 558.484 452.749 558.705C441.173 536.848 406.537 507.64 383.139 500.407C381.038 499.738 378.9 499.195 376.734 498.78ZM366.182 515.73C358.371 533.719 353.81 555.884 361.147 574.662C368.637 593.832 381.019 595.454 399.124 591.865C408.533 590 412.993 590.105 421.913 585.256C429.748 580.02 432.82 576.797 439.022 569.545C415.665 560.489 398.663 550.168 380.882 532.134C376.795 527.989 370.041 518.958 366.182 515.73Z"/><path fill="#FEFEFE" d="M607.105 236.058C613.463 235.59 619.105 237.675 621.259 244.414C622.831 249.331 621.422 252.176 619.279 256.507C620.843 268.787 622.966 281.316 624.573 293.794C633.452 291.313 699.106 280.334 704.613 281.137C706.26 281.376 706.983 281.923 707.989 283.204C708.208 284.729 708.227 284.62 707.645 286.046C702.828 288.666 675.853 292.684 668.52 293.904L596.614 305.541L535.695 315.767C531.197 316.529 526.675 317.382 522.19 318.168C517.868 318.926 508.295 321.91 505.207 318.295C504.951 313.008 514.067 311.98 517.965 311.267C525.907 309.815 533.885 308.458 541.841 307.075L606.977 295.959C605.856 284.92 605.656 271.82 603.401 260.919C602.384 255.999 599.15 255.15 597.219 247.334C598.918 240.463 600.943 238.837 607.105 236.058Z"/><path fill="#FEFEFE" d="M605.799 150.215C654.639 146.975 697.845 186.62 702.793 234.232C703.139 237.558 703.131 241.797 698.776 241.762C695.43 239.825 694.483 234.609 694.021 231.015C693.057 223.527 691.577 217.978 688.625 210.998C685.009 202.471 680.125 194.541 674.137 187.476C658.348 168.931 638.723 160.717 614.888 158.712C609.998 158.221 605.356 158.658 600.548 159.183C563.131 163.266 531.366 194.191 527.314 231.769C526.911 235.501 527.176 242.314 523.071 243.682C516.71 242.367 518.992 232.284 519.727 227.741C522.509 210.79 529.914 194.936 541.128 181.923C557.886 162.433 580.359 152.065 605.799 150.215Z"/><path fill="#FEFEFE" d="M606.181 180.199C614.286 179.02 625.338 181.447 632.84 184.462C648.642 190.775 661.287 203.112 667.988 218.754C670.569 224.845 676.863 245.056 668.054 248.152C664.35 246.614 664.958 239.607 664.464 235.953C663.213 226.576 659.596 217.673 653.955 210.08C644.229 197.083 630.409 190.433 614.622 188.206C607.678 186.974 597.012 189.342 590.526 191.839C574.21 198.206 561.854 211.897 557.189 228.779C555.676 234.256 556.09 243.781 552.059 246.959C549.377 247.409 547.342 245.262 547.46 242.797C549.113 208.385 572.249 183.655 606.181 180.199Z"/><path fill="#FEFEFE" d="M607.222 208.619C627.928 206.866 651.449 229.381 642.18 250.95C641.769 251.906 640.824 251.917 640.009 251.923C635.283 249.367 636.889 243.881 636.001 238.384C635.439 234.892 634.166 231.552 632.261 228.572C627.482 221.203 620.172 218.186 612.01 216.483C605.453 216.407 599.317 217.949 593.969 221.939C587.33 226.981 583.475 234.872 583.578 243.208C583.606 244.505 584.13 250.275 583.81 251C581.464 256.484 575.779 253.552 575.444 248.453C573.996 226.45 586.485 212.502 607.222 208.619Z"/><path fill="#1D1C1D" d="M336.757 821.754C354.485 818.69 371.335 830.593 374.372 848.325C377.409 866.057 365.481 882.889 347.744 885.9C330.045 888.903 313.257 877.006 310.226 859.312C307.196 841.618 319.067 824.812 336.757 821.754Z"/><path fill="#FEFEFE" d="M338.073 833.261C349.572 830.882 360.805 838.335 363.082 849.855C365.359 861.374 357.807 872.54 346.268 874.716C334.872 876.864 323.874 869.426 321.625 858.049C319.377 846.673 326.717 835.61 338.073 833.261Z"/><path fill="#1D1C1D" d="M339.775 845.272C342.881 844.337 346.25 845.144 348.596 847.385C350.941 849.626 351.901 852.955 351.108 856.101C350.315 859.247 347.892 861.723 344.765 862.585C340.008 863.895 335.082 861.136 333.715 856.394C332.348 851.653 335.05 846.695 339.775 845.272Z"/><path fill="#1D1C1D" d="M502.367 751.183C520.048 749.313 535.903 762.114 537.8 779.792C539.698 797.469 526.921 813.344 509.246 815.269C491.533 817.199 475.615 804.388 473.713 786.671C471.812 768.954 484.648 753.057 502.367 751.183Z"/><path fill="#FEFEFE" d="M502.543 762.735C513.846 760.767 524.609 768.321 526.601 779.62C528.593 790.92 521.062 801.699 509.767 803.715C498.438 805.737 487.619 798.178 485.621 786.845C483.623 775.512 491.205 764.709 502.543 762.735Z"/><path fill="#1D1C1D" d="M503.553 774.768C506.638 773.678 510.07 774.34 512.528 776.499C514.986 778.658 516.085 781.976 515.402 785.176C514.719 788.375 512.361 790.955 509.236 791.923C504.534 793.378 499.532 790.803 497.984 786.131C496.437 781.459 498.912 776.407 503.553 774.768Z"/><path fill="#1D1C1D" d="M421.634 785.752C439.262 784.925 454.23 798.527 455.09 816.153C455.95 833.779 442.377 848.773 424.753 849.667C407.081 850.563 392.037 836.945 391.175 819.272C390.312 801.598 403.959 786.58 421.634 785.752Z"/><path fill="#FEFEFE" d="M419.689 797.23C430.966 795.24 441.715 802.789 443.669 814.072C445.624 825.355 438.04 836.08 426.751 837.998C415.512 839.907 404.847 832.366 402.901 821.134C400.956 809.901 408.463 799.212 419.689 797.23Z"/><path fill="#1D1C1D" d="M423.113 808.815C427.911 808.716 431.9 812.486 432.074 817.282C432.247 822.078 428.539 826.125 423.747 826.373C420.58 826.536 417.571 824.98 415.873 822.302C414.175 819.623 414.053 816.237 415.553 813.443C417.053 810.649 419.942 808.88 423.113 808.815Z"/><path fill="#FEFEFE" d="M374.155 687.338C376.668 688.436 378.521 693.14 379.194 695.76C379.902 698.514 379.982 698.842 378.531 701.184C375.992 699.217 373.117 693.93 372.723 690.692C372.491 688.786 373.023 688.687 374.155 687.338Z"/><path fill="#1D1C1D" fill-opacity="0.0078431377" d="M408.298 626.212C412.588 627.855 423.917 660.659 425.28 666.73C422.283 664.609 410.107 631.71 408.298 626.212Z"/></svg>